**ABCDEFGHIJKLMNOPQRSTUVWXYZabcdefghijklmnopqrstuvwxyz**************************
**PARASOLID !"#$%&'()*+,-./:;<=>?@[\]^_`{|}~0123456789**************************
**PART1;
MC=AMD64;
MC_MODEL=Intel64 Family 6 Model 158 Stepping 13, GenuineIntel;
MC_ID=unknown;
OS=Windows_NT;
OS_RELEASE=unknown;
FRU=Parasolid Version 31.1, build 290,  3- 9-2020;
APPL=SOLIDWORKS 2020-2020128;
SITE=;
USER=unknown;
FORMAT=text;
GUISE=transmit;
KEY=BlockedVeinCFD;
FILE=BlockedVeinCFD.x_t;
DATE=Fri Mar 19 18:32:00 2021;
**PART2;
SCH=SCH_3101290_31100;
USFLD_SIZE=0;
**PART3;
**END_OF_HEADER*****************************************************************
T51 : TRANSMIT FILE created by modeller version 310129023 SCH_3101290_31100_1300
6222 0 10 20 CCCCCCCI4 mesh1006 0 I8 polyline1008 0 CCCCCCCCCCA16 mesh_offset_da
ta206 0 Z1 7 2 3 0 0 0 0 0 0 0 1e3 1e-8 0 0 0 1 0 1 4 0 81 255 1 2 7 5 1 0 0 0 0
 0 70 11 CI9 list_type0 0 1 uI10 notransmit0 0 1 lCCCDCCDI12 finger_index0 0 1 d
I12 finger_block1012 0 CZ3 0 4 T1 0 0 1 20 1 6 6 11 255 4 5 0 1 7 8 1 9 0 0 0 12
 34 CCCCCCI4 mesh1006 0 I8 polyline1008 0 CCCCCCCDI5 owner1040 0 CCCCCCI13 bound
ary_mesh1006 0 I17 boundary_polyline1008 0 CCCA16 index_map_offset0 0 1 dA9 inde
x_map82 0 A17 node_id_index_map82 0 A20 schema_embedding_map82 0 A5 child12 0 A1
4 lowest_node_id0 0 1 dA16 mesh_offset_data206 0 Z7 195 10 11 0 0 0 0 0 0 1e3 1e
-8 4 12 0 1 0 1 1 13 14 15 16 0 0 17 18 19 0 0 0 0 0 0 0 100 255 8 6 4 0 0 1 0 0
 0 1 0 0 0 1 0 0 .025 1 1 ?11 9 3 0 1 12 20 1 21 4 0 0 12 12 156 22 23 0 0 0 0 0
 0 1e3 1e-8 9 24 7 1 0 1 1 25 26 27 28 0 0 29 30 31 0 0 0 0 0 0 0 100 20 4 9 0 0
 1 0 0 0 1 0 0 0 1 0 0 0 1 0 ?11 21 1 0 1 24 32 1 0 9 0 0 12 24 161 33 34 0 0 0
 0 0 0 1e3 1e-8 21 35 12 1 0 1 1 36 37 38 0 0 0 39 40 0 0 0 0 0 0 0 0 100 32 2 2
1 0 0 1 0 0 0 1 0 0 0 1 0 0 0 1 0 ?81 1 33 161 5 24 0 0 0 0 41 70 34 0 4 T24 0 0
 3 20 1 42 42 13 255 36 31 0 24 0 43 0 0 44 0 51 255 37 30 0 43 45 0 0 +0 0 -.02
5 0 0 1 .0055 1 0 0 31 255 38 7 0 40 46 0 0 +0 0 -.025 0 0 1 1 0 0 .0055 19 8 CC
CCCCCA5 owner12 0 Z39 9 0 24 44 0 47 V0 16 255 40 5 0 ?48 0 49 38 0 0 24 17 255
 48 0 50 48 48 0 51 40 0 0 +16 49 51 0 ?52 40 53 46 0 0 24 17 52 0 54 52 52 0 55
 49 0 0 +16 53 77 0 ?56 49 57 58 0 0 24 31 46 74 0 49 58 38 0 +0 0 -.025 0 0 1 1
 0 0 .005 31 58 114 0 53 59 46 0 +0 0 .025 0 0 1 1 0 0 .0055 31 59 116 0 57 0 58
 0 +0 0 .025 0 0 1 1 0 0 .005 16 57 86 0 ?60 53 0 59 0 0 24 17 60 0 61 60 60 0 6
2 57 0 0 +15 255 61 105 0 60 63 0 17 62 0 64 62 62 0 60 57 0 0 -15 64 92 0 62 65
 0 14 255 65 89 66 ?0 63 67 36 68 +0 0 0 63 47 81 1 66 160 69 65 70 0 71 0 72 14
 63 57 71 ?65 73 74 36 75 -0 0 65 73 47 15 67 91 0 56 65 64 50 255 68 111 0 65 0
 75 0 +0 0 .025 0 0 1 1 0 0 13 47 10 0 0 0 0 0 0 39 43 14 43 27 76 ?73 0 50 36 3
7 +0 0 73 0 47 81 1 76 157 69 43 77 0 0 78 79 14 73 1 78 ?63 43 54 36 45 -0 0 63
 43 47 15 50 26 0 48 43 80 15 80 100 0 81 43 0 17 81 0 80 81 81 0 56 53 0 0 -17
 56 0 67 56 56 0 81 53 0 0 +81 1 78 158 69 73 82 0 76 71 83 15 54 45 0 52 73 84
 50 45 3 0 73 75 37 0 +0 0 -.025 0 0 1 1 0 0 51 75 70 0 63 68 45 0 +0 0 -.025 0
 0 1 .005 1 0 0 15 84 4 0 51 73 0 17 51 0 84 51 51 0 48 40 0 0 -80 255 1 69 0 85
 8001 0 0 0 0 3 5 0 0 0 FFFFTFTFFFFFFF2 81 1 82 155 86 73 0 78 77 0 87 81 1 71 1
59 69 63 88 0 78 66 89 83 255 3 83 .752941176470588 0 .752941176470588 81 1 88 1
51 86 63 0 71 70 77 90 83 3 89 .752941176470588 0 .752941176470588 80 1 86 91 92
 9000 1 1 1 1 1 1 1 1 0 FFFFTFTFFFFFFF1 81 1 70 149 86 65 0 66 0 88 93 81 1 77 1
53 86 43 0 76 88 82 94 82 255 1 90 334299274 82 1 94 338296970 82 1 93 342032522
 79 255 14 92 SWEntUnchanged82 1 87 336330890 79 15 85 SDL/TYSA_COLOUR83 3 79 .7
52941176470588 0 .752941176470588 15 74 60 0 55 63 61 17 55 0 74 55 55 0 52 49 0
 0 -83 3 72 .752941176470588 0 .752941176470588 19 44 32 0 24 0 39 36 S0 74 4 CI
16 index_map_offset0 0 1 dCCZ20 42 3 0 0 82 66 33 0 0 0 0 0 0 0 0 0 0 0 0 0 0 0
 0 0 80 1 5 95 96 8017 0 0 0 0 0 0 0 0 0 TTTTTTTTTTTTTF3 84 255 11 41 BlockedVei
n79 13 96 SDL/TYSA_NAME81 1 22 156 5 12 0 0 0 0 97 70 23 0 4 T12 0 0 3 20 1 98 9
8 13 25 27 0 12 0 99 0 0 100 0 68 255 26 50 0 99 101 0 102 +103 -350202308510877
e-32 .002861542664945205 0 -183697019872103e-30 1 0 ?585845785847582e-33 -.00192
225121142364 0 ?1 1 1451624979682576e-31 0 0 38 12 CCCCCCCCCCCA17 intersection_d
ata204 0 Z27 76 0 30 103 0 0 +26 101 104 105 105 106 29 255 28 19 0 31 0 0 -3673
72934628935e-32 -.00192225121142364 0 19 29 31 0 12 100 0 107 V0 16 30 86 0 ?108
 0 0 27 0 0 12 18 255 31 17 0 109 0 0 28 ?12 17 109 0 110 109 109 31 0 0 0 0 ?15
 110 61 0 109 99 111 14 99 77 112 ?113 0 110 25 26 -0 0 113 0 107 15 111 75 0 11
4 99 0 17 114 0 111 114 114 0 108 30 0 0 -17 108 0 115 108 108 0 114 30 0 0 +15
 115 96 0 108 113 0 14 113 93 116 ?0 99 115 25 101 +0 0 0 99 107 81 1 116 155 69
 113 117 0 112 0 118 51 101 120 0 113 0 26 119 +0 0 -.025 0 0 1 .0055 1 0 0 13 1
07 30 0 0 0 0 0 0 29 99 141 255 119 27 119 119 101 81 1 117 152 86 113 0 116 120
 0 121 81 1 112 154 69 99 120 0 0 116 122 83 3 118 .792156862745098 .81960784313
7255 .933333333333333 81 1 120 150 86 99 0 112 0 117 123 83 3 122 .7529411764705
88 0 .752941176470588 82 1 123 392560781 82 1 121 393019533 19 100 26 0 12 0 29
 25 S0 134 255 103 7 0 12 0 27 124 +125 126 40 255 21 104 0 1 21 .00037012840308
68195 .3979900683801235 ??.00309358975745318 -.00454749408054379 0 .003012750009
67796 -.004601449486758 .000939695965695311 .00248022389941954 -.004909021227164
03 .002522576800626065 .00142924920778418 -.0053110494915834 .003870936104624255
 .000818248874023086 -.00543879295249966 .00426755016753244 976156478990822e-19
 -.00549913367588797 .00445550374195663 -.000535061762995126 -.00547391166441151
 .00437676478732325 -.00120380956997109 -.00536664164252151 .004043770809515105
 -.002037110764188575 -.00510883350036259 .00322519895695018 -.00282894084495788
 -.00471668248833107 .001686246185138135 -.003093081199143505 -.0045478400032878
2 -747875046087694e-19 -.00283823973725725 -.00471109278128269 -.001657074687303
12 -.002151503229828515 -.00506172241949689 -.0030676386886117 -.001367039114809
996 -.00532740124813023 -.00392186806281765 -.000708918541541767 -.0054541208733
8173 -.004315170932563235 -.0001205429919373244 -.00549867887652069 -.0044540810
3187212 .000484341247383274 -.00547863245309294 -.00439147935971695 .00114225781
883981 -.00538007872389422 -.004085448208022695 .00196230458652623 -.00513803082
02363 -.00332109827014827 .002780729487786255 -.00474526537885459 -.001829252606
6874 .00309358975745318 -.00454749408054379 -724675558232912e-33 41 3 CI8 term_u
se0 0 1 cCZ1 105 H?.00309358975745318 -.00454749408054379 -724675558232912e-33 2
04 2 17 INTERSECTION_DATA17 Intersection data7 uv_type0 0 1 u6 values0 1 1 fT84
 106 4 .4487966714933925 0 5.30976015905838 .025 .4387903935370905 5.98084133205
732 5.29208868837021 .0259396959656953 .3789507177103345 5.48932150783687 5.1802
1817648507 .02752257680062605 .2896952754596795 5.0660876915301 4.97526981641247
 .02887093610462425 .2568792069312475 4.90182723392735 4.86171584568943 .0292675
5016753245 .240194661659455 4.73429447960545 4.73013821192687 .02945550374195665
 .247276859796712 4.59074207777854 4.61495091428177 .02937676478732325 .27578123
6880042 4.423048381511215 4.49172816107169 .0290437708095151 .336654616126079 4.
14904102376984 4.33296683399014 .0282251989569502 .416975069122581 3.67911728472
007 4.17213609068488 .02668624618513815 .448732909451037 3.11741839796737 4.1151
29630106625 .02492521249539125 .4180483779829525 2.61314109851604 4.170163432445
165 .0233429253126969 .346936969428621 2.182430998550265 4.31047295200521 .02193
23613113883 .2856556900804505 1.90619517326771 4.46120334047439 .021078131937182
35 .2527234487031875 1.73362697028596 4.58313510256743 .02068482906743675 .24032
38346412075 1.59785321555072 4.69047031774617 .0205459189681279 .245963621808676
 1.460949153742696 4.80056524347712 .02060852064028305 .27233777567926 1.2981661
87426378 4.92159494165827 .0209145517919773 .3301718267680945 1.037124418596886
 5.07721059213512 .02167890172985175 .41146095849577 .581861272810883 5.24245138
06347 .0231707473933126 .448796671493393 2342506974258625e-31 5.30976015905838 .
025 141 124 26 124 124 103 136 255 125 3 5 3 3 6 FFF1 127 128 129 135 255 126 2
 0 45 255 15 127 .00597510893053155 -.0059503027345329 0 .00483520314815448 -.00
59503027345329 0 .002204544845095275 -.004193448832225405 0 .001113001322037864
 -.00195627127428695 0 585845785847582e-33 -.00192225121142364 0 127 255 3 128 4
 1 4 128 255 3 129 0 .598579126831462 1 141 102 27 102 102 26 74 20 98 3 0 0 117
 116 22 0 0 0 0 0 0 0 0 0 0 0 0 0 0 0 0 0 84 11 97 BlockedVein81 1 10 195 5 7 0
 0 0 0 130 70 11 0 4 T7 0 0 3 20 1 131 131 13 13 31 0 7 0 132 0 0 133 0 51 14 30
 0 132 134 0 0 +0 0 -.064142135623731 0 0 1 .005 1 0 0 31 15 42 0 18 135 0 0 -0
 0 -.05 0 0 1 1 0 0 .005 29 16 164 0 19 0 0 -367372934628935e-32 -.0019222512114
2364 -.025 19 17 9 0 7 133 0 136 V0 16 18 47 0 ?137 0 138 15 0 0 7 18 19 129 0 1
39 0 0 16 ?7 17 139 0 140 139 139 19 0 0 0 0 ?15 140 149 0 139 141 142 14 141 14
7 143 ?0 144 140 13 145 +0 0 0 144 136 15 142 150 0 146 141 0 17 146 0 142 146 1
46 0 147 148 0 0 -17 147 0 149 147 147 0 146 148 0 0 +16 148 128 0 ?147 138 0 15
0 0 0 7 16 138 20 0 ?151 18 148 135 0 0 7 38 150 158 0 148 152 135 0 +153 145 15
4 155 155 156 134 152 163 0 7 0 150 157 +158 159 31 135 25 0 138 150 15 0 +0 0 0
 0 0 1 1 0 0 .005 51 153 155 0 7 145 160 161 +0 0 -.05 0 0 1 .005 1 0 0 68 145 1
57 0 141 0 153 162 +152 -350202308510877e-32 .002861542664945205 -.025 -18369701
9872103e-30 1 0 ?585845785847582e-33 -.00192225121142364 -.025 ?1 1 145162497968
2576e-31 0 0 40 21 154 0 1 21 .000258284589075576 .3622524138148955 ??.002717519
912812265 -.004197032942861995 -.025 .002532524249850435 -.004311185558975565 -.
0262738632783388 .00198832211827986 -.00458765464632627 -.02743006361634515 .001
283391898555616 -.00483248437501062 -.02818954667753265 .000655257914166252 -.00
495687775378035 -.02854152506261505 652480213888655e-19 -.0049995742514443 -.028
65934114145265 -.000533558346573171 -.0049714500390532 -.0285818759128297 -.0011
75556012781566 -.00485984239053213 -.028268295257203 -.00189658227910812 -.00462
633501365531 -.027558836105925 -.00251324971943184 -.00432245021345252 -.0263368
784400135 -.00271722473567637 -.004197224051182935 -.02494851667569375 -.0025111
79590946075 -.004323653207880565 -.02365654889877055 -.00194376396530155 -.00460
671050177837 -.02250594908288975 -.001246285682794894 -.0048421866957874 -.02178
24262785522 -.000619503637344535 -.00496147309206821 -.0214457337868355 -3111750
71330931e-19 -.00499990316913736 -.02133975588866915 .000561793009192651 -.00496
833861716593 -.0214267268741381 .00120752589565231 -.00485199765162032 -.0217541
9763246395 .001930551581601215 -.00461226306608557 -.0224875083843584 .002532283
27777256 -.0043113271043976 -.0237253275367575 .002717519912812265 -.00419703294
2861995 -.025 41 1 155 H?.002717519912812265 -.004197032942861995 -.025 204 84 1
56 4 5.28699483248112 .025 .511218296199068 0 5.24351533839046 .0237261367216612
 .491316317520559 .466045856241602 5.12135891651145 .02256993638365485 .44136060
2536466 .885045062590119 4.97197284410173 .0218104533224674 .394351933147702 1.1
88244739184286 4.84381861698375 .02145847493738495 .3691149328810705 1.387843871
83478 4.72543895506509 .0213406588585474 .3601931387710355 1.55296767801374 4.60
547373843539 .0214181240871703 .3660860169617935 1.71866958109154 4.475056004240
66 .021731704742797 .3888909052209205 1.916072811870035 4.323331549315955 .02244
1163894075 .434132379511289 2.20863478436826 4.18572760072759 .0236631215599865
 .489332031602408 2.652726813505905 4.137853456641555 .02505148332430625 .511185
27447636 3.1605374115611 4.18620645885485 .0263434511012295 .489119894327546 3.6
32837377690815 4.313111459869695 .0274940509171103 .4378079674825 4.050360610647
305 4.46047587540316 .0282175737214478 .392420640427573 4.34284632999714 4.58816
903469145 .0285542662131645 .368161531382627 4.53982394942789 4.70616543878263 .
02866024411133085 .360123843950311 4.70388770108634 4.82498534648181 .0285732731
258619 .3667341148515145 4.86833328629358 4.95630562496948 .02824580236753605 .3
904616898589665 5.06855058069628 5.10880015692829 .02751249161564165 .4367697589
7313 5.36755070802106 5.24345944468819 .02627467246324255 .491291407885475 5.816
8462698441 5.28699483248112 .025 .511218296199068 0 141 162 150 162 162 145 50 1
60 65 0 144 153 134 0 +0 0 -.05 0 0 1 1 0 0 141 161 150 161 161 153 14 144 61 16
3 ?141 164 165 13 160 -0 0 141 164 136 50 134 24 0 164 160 14 0 +0 0 0 0 0 1 1 0
 0 14 164 18 166 ?144 132 167 13 134 +0 0 144 132 136 81 1 166 192 69 164 168 0
 169 163 170 14 132 120 169 ?164 0 171 13 14 +0 0 164 0 136 15 167 19 0 151 164
 0 13 136 10 0 0 0 0 0 0 17 132 17 151 0 167 151 151 0 172 138 0 0 +17 172 0 171
 172 172 0 151 138 0 0 -15 171 28 0 172 132 173 15 173 41 0 174 132 149 17 174 0
 173 174 174 0 137 18 0 0 -15 149 117 0 147 132 0 17 137 0 165 137 137 0 174 18
 0 0 +15 165 62 0 137 144 0 81 1 169 191 69 132 175 0 0 166 176 81 1 175 189 86
 132 0 169 168 0 177 83 3 176 .792156862745098 .819607843137255 .933333333333333
 81 1 168 187 86 164 0 166 178 175 179 82 1 177 1764556905 81 1 178 185 86 144 0
 163 180 168 181 82 1 179 1562771559 81 1 163 193 69 144 178 0 166 143 182 81 1
 180 183 86 141 0 143 0 178 183 82 1 181 1576271975 81 1 143 194 69 141 180 0 16
3 0 184 82 1 183 1763508329 83 3 184 .792156862745098 .819607843137255 .93333333
3333333 83 3 182 .792156862745098 .819607843137255 .933333333333333 83 3 170 .79
2156862745098 .819607843137255 .933333333333333 141 157 145 157 157 152 136 158
 3 5 3 3 6 FFF1 185 186 187 135 159 2 0 45 15 185 .00597510893053155 -.005950302
7345329 -.025 .00483520314815448 -.0059503027345329 -.025 .002204544845095275 -.
004193448832225405 -.025 .001113001322037864 -.00195627127428695 -.025 585845785
847582e-33 -.00192225121142364 -.025 127 3 186 4 1 4 128 3 187 0 .59857912683146
2 1 19 133 32 0 7 0 17 13 S0 74 20 131 3 0 0 175 143 10 0 0 0 0 0 0 0 0 0 0 0 0
 0 0 0 0 0 84 20 130 Blood^BlockedVeinCFD74 20 6 1 0 0 2 0 0 0 0 0 0 0 0 0 0 0 0
 0 0 0 0 0 0 0 1 0 
